HIERARCHY
ROOT Pelvis
{
	OFFSET 0.000000 0.000000 0.000000
	CHANNELS 6 Xposition Yposition Zposition Zrotation Yrotation Xrotation 
	JOINT Left_hip
	{
		OFFSET 0.067986 -0.089946 -0.007639
		CHANNELS 3 Zrotation Yrotation Xrotation
		JOINT Left_knee
		{
			OFFSET 0.036308 -0.388288 -0.004016
			CHANNELS 3 Zrotation Yrotation Xrotation
			JOINT Left_ankle
			{
				OFFSET -0.012264 -0.413250 -0.042878
				CHANNELS 3 Zrotation Yrotation Xrotation
				JOINT Left_foot
				{
					OFFSET 0.024043 -0.058563 0.118570
					CHANNELS 3 Zrotation Yrotation Xrotation
					End Site
					{
						OFFSET 0.000000 0.000000 0.000000
					}
				}
			}
		}
	}
	JOINT Right_hip
	{
		OFFSET -0.065648 -0.089374 -0.003858
		CHANNELS 3 Zrotation Yrotation Xrotation
		JOINT Right_knee
		{
			OFFSET -0.042132 -0.395021 -0.006361
			CHANNELS 3 Zrotation Yrotation Xrotation
			JOINT Right_ankle
			{
				OFFSET 0.014805 -0.413264 -0.041054
				CHANNELS 3 Zrotation Yrotation Xrotation
				JOINT Right_foot
				{
					OFFSET -0.021758 -0.049013 0.121832
					CHANNELS 3 Zrotation Yrotation Xrotation
					End Site
					{
						OFFSET 0.000000 0.000000 0.000000
					}
				}
			}
		}
	}
	JOINT Spine1
	{
		OFFSET -0.002755 0.104406 -0.022277
		CHANNELS 3 Zrotation Yrotation Xrotation
		JOINT Spine2
		{
			OFFSET 0.004136 0.129393 -0.002186
			CHANNELS 3 Zrotation Yrotation Xrotation
			JOINT Spine3
			{
				OFFSET 0.001906 0.049304 0.025578
				CHANNELS 3 Zrotation Yrotation Xrotation
				JOINT Neck
				{
					OFFSET -0.004620 0.210958 -0.044063
					CHANNELS 3 Zrotation Yrotation Xrotation
					JOINT Head
					{
						OFFSET 0.003833 0.067393 0.052435
						CHANNELS 3 Zrotation Yrotation Xrotation
						End Site
						{
							OFFSET 0.000000 0.000000 0.000000
						}
					}
				}
				JOINT Left_collar
				{
					OFFSET 0.070771 0.116689 -0.037192
					CHANNELS 3 Zrotation Yrotation Xrotation
					JOINT Left_shoulder
					{
						OFFSET 0.080652 0.031596 -0.005617
						CHANNELS 3 Zrotation Yrotation Xrotation
						JOINT Left_elbow
						{
							OFFSET 0.262654 -0.015020 -0.027939
							CHANNELS 3 Zrotation Yrotation Xrotation
							JOINT Left_wrist
							{
								OFFSET 0.250438 0.010062 -0.000990
								CHANNELS 3 Zrotation Yrotation Xrotation
								JOINT Left_palm
								{
									OFFSET 0.081198 -0.010037 -0.013706
									CHANNELS 3 Zrotation Yrotation Xrotation
									End Site
									{
										OFFSET 0.000000 0.000000 0.000000
									}
								}
							}
						}
					}
				}
				JOINT Right_collar
				{
					OFFSET -0.072972 0.115556 -0.040762
					CHANNELS 3 Zrotation Yrotation Xrotation
					JOINT Right_shoulder
					{
						OFFSET -0.082917 0.031841 -0.006673
						CHANNELS 3 Zrotation Yrotation Xrotation
						JOINT Right_elbow
						{
							OFFSET -0.252882 -0.013790 -0.020410
							CHANNELS 3 Zrotation Yrotation Xrotation
							JOINT Right_wrist
							{
								OFFSET -0.255570 0.009163 -0.005138
								CHANNELS 3 Zrotation Yrotation Xrotation
								JOINT Right_palm
								{
									OFFSET -0.080804 -0.007282 -0.010415
									CHANNELS 3 Zrotation Yrotation Xrotation
									End Site
									{
										OFFSET 0.000000 0.000000 0.000000
									}
								}
							}
						}
					}
				}
			}
		}
	}
}
MOTION
Frames: 6
Frame Time: 0.100000
-0.010764 0.000975 -0.009057 176.344669 16.080887 -15.426621 7.217297 6.222858 8.258697 -3.157572 -5.831950 -4.052123 -2.047051 3.067160 -5.180356 4.178501 10.578487 0.888034 -1.662562 -0.727556 2.999045 5.982360 8.335319 0.782156 5.148616 -4.978599 -7.625669 -3.101923 0.708911 5.879315 1.448672 2.414336 0.447636 1.603408 -4.967819 6.263429 0.024595 -1.323980 -1.424313 13.940121 2.240324 9.801428 -5.681066 4.263246 1.463219 -24.557122 -6.069945 -0.657131 -43.199058 6.967697 6.780761 -10.487854 -18.271773 30.425908 -1.661157 -2.248869 18.872412 -22.814906 -14.353092 -31.721670 1.011114 11.391933 -17.710689 -9.664983 43.106548 -27.216636 -147.993709 38.167428 -119.097572 -24.323932 15.328613 17.136538 28.370286 15.960342 -12.381168 
-0.014345 0.000515 -0.007061 176.058440 14.998147 -15.437543 7.438782 6.065191 8.834912 -3.130207 -5.278476 -4.429017 -2.063438 3.954355 -5.547017 4.650615 9.573988 1.031284 -1.336490 -0.556129 2.952951 5.961362 8.793023 0.952355 5.182278 -4.488625 -7.388820 -3.138264 -0.005325 5.407579 1.143318 2.299068 0.009599 1.850236 -4.613006 6.311309 0.398615 -1.241466 -0.922798 13.993475 1.666020 10.010582 -5.330834 5.070423 0.989630 -24.559339 -3.022052 -0.513935 -46.406616 9.575993 6.861896 -11.009685 -21.373427 29.544041 0.178642 -2.083474 12.101483 -23.161623 -14.466274 -30.264039 1.098155 9.665063 -17.447959 -8.635415 43.875636 -26.803413 -148.311044 37.902778 -119.238255 -25.175835 14.914601 17.579279 28.378528 16.175811 -12.378628 
-0.017739 0.000227 -0.005738 175.883391 14.522027 -15.640534 7.493338 5.871381 9.227945 -3.178503 -4.963036 -4.324335 -2.025985 4.324564 -5.863842 4.906940 9.212238 0.931220 -1.237226 -0.472803 3.121346 5.918134 8.915125 1.206482 5.258477 -4.151284 -7.315346 -3.177179 -0.541343 5.054623 0.883886 2.235575 -0.317584 2.049560 -4.550250 6.592672 0.585936 -1.285306 -0.685595 14.142351 1.275812 10.329215 -5.090961 5.154837 0.648747 -24.166479 -1.670203 -0.252733 -48.174366 10.487334 7.370151 -11.884405 -24.264937 30.785681 -0.247701 -2.371161 8.321958 -22.996477 -14.193118 -29.275929 0.854989 8.756532 -17.286893 -7.734624 44.426520 -26.408273 -148.758891 37.656416 -119.249503 -25.062526 14.535530 17.938131 28.166777 16.211716 -12.362978 
-0.021172 0.000105 -0.005175 175.786984 14.595426 -15.891386 7.393507 5.884317 9.523212 -3.199130 -5.105996 -4.206113 -1.690857 4.281992 -6.024142 4.518499 9.244031 0.851593 -1.329047 -0.570456 3.329054 5.842112 8.981510 1.524553 5.244095 -4.187812 -7.457567 -3.164715 -0.437696 4.887345 0.820698 2.229058 -0.434476 2.066999 -4.685603 6.663022 0.605385 -1.359681 -0.613678 13.979561 0.927832 10.588689 -4.888631 5.166154 0.613475 -23.897377 -2.168911 -0.252011 -48.731532 9.603509 7.348048 -11.726692 -23.735304 30.470057 0.890256 -1.890732 7.516359 -23.179965 -14.234269 -28.768365 0.550834 8.809130 -17.335930 -7.169836 44.487855 -26.096259 -148.938440 37.728059 -119.160061 -25.694930 14.453997 18.033192 28.305761 16.385471 -12.334781 
-0.024353 -0.000024 -0.005202 175.713555 14.585593 -15.945047 7.282144 5.746685 9.677125 -3.267913 -5.140098 -4.279645 -1.489744 4.479754 -6.104713 4.242690 8.902200 0.947777 -1.419674 -0.684109 3.347075 5.784381 9.033152 1.683336 5.249079 -4.201179 -7.476986 -3.108800 -0.256274 4.828564 0.747984 2.226552 -0.546181 2.150173 -4.763709 6.486695 0.685030 -1.351796 -0.518313 13.718338 0.896174 10.569543 -4.584039 5.384686 0.554993 -23.431299 -2.443378 -0.346589 -48.849641 8.799260 7.281269 -11.473239 -24.540126 28.841015 2.611940 -1.621536 4.358765 -23.350488 -14.071961 -27.395898 0.411870 8.778186 -17.303473 -6.759339 44.628524 -25.703582 -149.036319 37.761877 -119.241570 -26.574840 14.359125 17.497612 28.265670 16.434155 -12.027253 
-0.027652 0.000091 -0.006224 175.671801 14.697284 -16.071935 7.082795 5.568115 9.726187 -3.357107 -5.118809 -4.171933 -1.221689 4.452742 -6.173698 3.813983 9.269357 0.965819 -1.623725 -0.666792 3.500363 5.763142 9.065219 1.625349 5.172638 -4.389467 -7.464436 -2.861144 0.127259 4.968962 0.792420 2.188819 -0.518636 2.108963 -4.757589 6.627922 0.611145 -1.406240 -0.546751 14.002606 0.934946 10.398860 -4.526244 5.466327 0.581985 -23.788057 -2.522546 -0.451117 -47.748012 8.140300 6.898231 -10.968287 -25.924762 27.171934 2.292584 -1.875697 3.574883 -22.989526 -13.775250 -26.524080 0.817284 8.834899 -17.275059 -7.381792 44.378362 -25.727552 -148.982534 37.610465 -119.507814 -26.395865 14.446998 17.665065 27.999845 16.262878 -11.594899 
